<svg width="50" height="51" viewBox="0 0 50 51" fill="none" xmlns="http://www.w3.org/2000/svg">
<g clip-path="url(#clip0_402_253)">
<path d="M25 50.5181C38.8071 50.5181 50 39.3252 50 25.5181C50 11.7109 38.8071 0.518066 25 0.518066C11.1929 0.518066 0 11.7109 0 25.5181C0 39.3252 11.1929 50.5181 25 50.5181Z" fill="#6DA544"/>
<path d="M25 10.3007L45.6521 25.518L25 40.7354L4.34784 25.518L25 10.3007Z" fill="#FFDA44"/>
<path d="M25 34.2137C29.8024 34.2137 33.6956 30.3205 33.6956 25.5181C33.6956 20.7156 29.8024 16.8224 25 16.8224C20.1975 16.8224 16.3044 20.7156 16.3044 25.5181C16.3044 30.3205 20.1975 34.2137 25 34.2137Z" fill="#F0F0F0"/>
<path d="M20.6521 24.9746C19.14 24.9746 17.6808 25.2046 16.3071 25.6313C16.368 30.3813 20.2355 34.2138 25 34.2138C27.9461 34.2138 30.548 32.7473 32.121 30.506C29.4299 27.1371 25.2892 24.9746 20.6521 24.9746Z" fill="#0052B4"/>
<path d="M33.5345 27.1841C33.6392 26.6446 33.6957 26.0881 33.6957 25.5181C33.6957 20.7155 29.8025 16.8224 25.0001 16.8224C21.4167 16.8224 18.3405 18.9905 17.0093 22.086C18.186 21.8422 19.4044 21.7138 20.6523 21.7138C25.7028 21.7137 30.2718 23.8131 33.5345 27.1841Z" fill="#0052B4"/>
</g>
<defs>
<clipPath id="clip0_402_253">
<rect width="50" height="50" fill="white" transform="translate(0 0.518066)"/>
</clipPath>
</defs>
</svg>