<svg width="270" height="65" viewBox="0 0 270 65" fill="none" xmlns="http://www.w3.org/2000/svg">
<path fill-rule="evenodd" clip-rule="evenodd" d="M88.5126 9.2816V7.20316L82.767 9.33873H82.7561V11.4716H82.767L88.5126 13.6072V11.526L85.5663 10.3997L88.5126 9.27888V9.2816Z" fill="#F7DD43"/>
<path fill-rule="evenodd" clip-rule="evenodd" d="M121.792 13.5037V11.4253L124.736 10.3072L121.792 9.18905V7.1106L127.53 9.24618H127.543V11.3817H127.53L121.792 13.5064V13.5037ZM119.327 4.16977L115.954 15H117.956L121.33 4.16977H119.327Z" fill="#F7DD43"/>
<path fill-rule="evenodd" clip-rule="evenodd" d="M96.9543 6.91747C97.5256 7.54317 97.8249 8.3702 97.7895 9.21627V13.8302H95.7873V9.64066C95.8117 9.17274 95.6621 8.7157 95.3683 8.35116C95.0908 8.02742 94.68 7.84787 94.2529 7.86691C92.9988 7.86691 92.3703 8.73746 92.3703 10.4758V13.8302H90.3681V6.25639H92.3703V6.93923C93.0069 6.32168 93.8693 5.99251 94.7562 6.03059C95.5832 5.99523 96.383 6.31896 96.9543 6.91747Z" fill="#F7DD43"/>
<path fill-rule="evenodd" clip-rule="evenodd" d="M100.341 3V13.8302H102.344V3H100.341Z" fill="#F7DD43"/>
<path fill-rule="evenodd" clip-rule="evenodd" d="M113.666 13.8302H111.996L110.358 9.36862L108.704 13.8302H107.034L104.226 6.2428H106.367L107.945 10.7806L109.572 6.2428H111.136L112.763 10.7942L114.341 6.2428H116.482L113.672 13.8302H113.666Z" fill="#F7DD43"/>
<path d="M137.08 17.9981C135.153 17.9981 133.129 17.6331 131.543 16.754V1.24411C133.105 0.389878 135.128 2.85548e-05 137.08 2.85548e-05C139.031 2.85548e-05 141.007 0.365035 142.566 1.24411V7.19505H138.639V3.14558C138.176 2.95066 137.615 2.87804 137.055 2.87804C136.495 2.87804 135.981 2.95066 135.493 3.14558V14.8525C135.956 15.0475 136.493 15.1201 137.055 15.1201C137.617 15.1201 138.152 15.0475 138.639 14.8525V10.805H142.566V16.7559C141.03 17.6101 139.006 17.9752 137.08 18V17.9981Z" fill="#F7DD43"/>
<path d="M149.931 17.9981C147.858 17.9981 145.859 17.5585 144.273 16.6565V1.3167C145.834 0.439536 147.835 0 149.931 0C152.028 0 153.979 0.414693 155.54 1.3167V16.6565C154.004 17.5585 151.98 17.9732 149.931 17.9981ZM151.615 3.19524C151.152 3.00031 150.591 2.90285 149.908 2.90285C149.226 2.90285 148.689 3.00031 148.225 3.19524V14.7799C148.687 14.9997 149.249 15.0971 149.908 15.0971C150.568 15.0971 151.128 14.9997 151.615 14.7799V3.19524Z" fill="#F7DD43"/>
<path d="M162.393 11.4127H161.344V17.7783H157.369V0.219779H162.393C164.784 0.219779 166.588 0.707092 168.002 1.70656V9.92589C166.613 10.9024 164.782 11.4127 162.393 11.4127ZM164.052 3.24303C163.687 2.97548 163.198 2.85318 162.368 2.85318H161.294V8.77927H162.368C163.173 8.77927 163.66 8.65697 164.052 8.41427V3.24303Z" fill="#F7DD43"/>
<path d="M176.317 17.7783V11.4127H173.391V17.7783H169.441V1.29185C170.88 0.437625 172.904 0 174.855 0C176.806 0 178.805 0.439537 180.244 1.29185V17.7783H176.317ZM176.317 3.04809C175.902 2.85316 175.39 2.7557 174.853 2.7557C174.316 2.7557 173.804 2.85316 173.389 3.04809V8.63211H176.315V3.04809H176.317Z" fill="#F7DD43"/>
<path d="M54.7129 47.9248H59.0928C59.0049 49.3604 58.6094 50.6348 57.9062 51.748C57.2129 52.8613 56.2412 53.7305 54.9912 54.3555C53.751 54.9805 52.2568 55.293 50.5088 55.293C49.1416 55.293 47.916 55.0586 46.832 54.5898C45.748 54.1113 44.8203 53.4277 44.0488 52.5391C43.2871 51.6504 42.7061 50.5762 42.3057 49.3164C41.9053 48.0566 41.7051 46.6455 41.7051 45.083V43.6035C41.7051 42.041 41.9102 40.6299 42.3203 39.3701C42.7402 38.1006 43.3359 37.0215 44.1074 36.1328C44.8887 35.2441 45.8213 34.5605 46.9053 34.082C47.9893 33.6035 49.2002 33.3643 50.5381 33.3643C52.3154 33.3643 53.8145 33.6865 55.0352 34.3311C56.2656 34.9756 57.2178 35.8643 57.8916 36.9971C58.5752 38.1299 58.9854 39.4189 59.1221 40.8643H54.7275C54.6787 40.0049 54.5078 39.2773 54.2148 38.6816C53.9219 38.0762 53.4775 37.6221 52.8818 37.3193C52.2959 37.0068 51.5146 36.8506 50.5381 36.8506C49.8057 36.8506 49.166 36.9873 48.6191 37.2607C48.0723 37.5342 47.6133 37.9492 47.2422 38.5059C46.8711 39.0625 46.5928 39.7656 46.4072 40.6152C46.2314 41.4551 46.1436 42.4414 46.1436 43.5742V45.083C46.1436 46.1865 46.2266 47.1582 46.3926 47.998C46.5586 48.8281 46.8125 49.5312 47.1543 50.1074C47.5059 50.6738 47.9551 51.1035 48.502 51.3965C49.0586 51.6797 49.7275 51.8213 50.5088 51.8213C51.4268 51.8213 52.1836 51.6748 52.7793 51.3818C53.375 51.0889 53.8291 50.6543 54.1416 50.0781C54.4639 49.502 54.6543 48.7842 54.7129 47.9248ZM70.6504 37.3193L64.8496 55H60.1768L68.1016 33.6719H71.0752L70.6504 37.3193ZM75.4697 55L69.6543 37.3193L69.1855 33.6719H72.1885L80.1572 55H75.4697ZM75.2061 47.0605V50.5029H63.9414V47.0605H75.2061ZM95.8457 51.5723V55H85.1084V51.5723H95.8457ZM86.5293 33.6719V55H82.1348V33.6719H86.5293ZM112.677 51.5723V55H101.324V51.5723H112.677ZM102.76 33.6719V55H98.3652V33.6719H102.76ZM111.197 42.3584V45.6982H101.324V42.3584H111.197ZM112.662 33.6719V37.1143H101.324V33.6719H112.662ZM132.599 33.6719V55H128.204L119.635 40.7031V55H115.24V33.6719H119.635L128.219 47.9834V33.6719H132.599ZM142.97 55H138.326L138.355 51.5723H142.97C144.122 51.5723 145.094 51.3135 145.885 50.7959C146.676 50.2686 147.271 49.502 147.672 48.4961C148.082 47.4902 148.287 46.2744 148.287 44.8486V43.8086C148.287 42.7148 148.17 41.7529 147.936 40.9229C147.711 40.0928 147.374 39.3945 146.925 38.8281C146.476 38.2617 145.924 37.8369 145.27 37.5537C144.615 37.2607 143.863 37.1143 143.014 37.1143H138.238V33.6719H143.014C144.439 33.6719 145.743 33.916 146.925 34.4043C148.116 34.8828 149.146 35.5713 150.016 36.4697C150.885 37.3682 151.554 38.4424 152.022 39.6924C152.501 40.9326 152.74 42.3145 152.74 43.8379V44.8486C152.74 46.3623 152.501 47.7441 152.022 48.9941C151.554 50.2441 150.885 51.3184 150.016 52.2168C149.156 53.1055 148.126 53.7939 146.925 54.2822C145.733 54.7607 144.415 55 142.97 55ZM140.816 33.6719V55H136.422V33.6719H140.816ZM164.283 37.3193L158.482 55H153.81L161.734 33.6719H164.708L164.283 37.3193ZM169.103 55L163.287 37.3193L162.818 33.6719H165.821L173.79 55H169.103ZM168.839 47.0605V50.5029H157.574V47.0605H168.839ZM161.808 32.4707L164.679 27.959H169.264L165.235 32.4707H161.808ZM175.768 33.6719H183.722C185.353 33.6719 186.754 33.916 187.926 34.4043C189.107 34.8926 190.016 35.6152 190.65 36.5723C191.285 37.5293 191.603 38.7061 191.603 40.1025C191.603 41.2451 191.407 42.2266 191.017 43.0469C190.636 43.8574 190.094 44.5361 189.391 45.083C188.697 45.6201 187.882 46.0498 186.944 46.3721L185.553 47.1045H178.639L178.609 43.6768H183.751C184.522 43.6768 185.162 43.54 185.67 43.2666C186.178 42.9932 186.559 42.6123 186.812 42.124C187.076 41.6357 187.208 41.0693 187.208 40.4248C187.208 39.7412 187.081 39.1504 186.827 38.6523C186.573 38.1543 186.188 37.7734 185.67 37.5098C185.152 37.2461 184.503 37.1143 183.722 37.1143H180.162V55H175.768V33.6719ZM187.691 55L182.828 45.4932L187.472 45.4639L192.394 54.7949V55H187.691ZM199.659 33.6719V55H195.279V33.6719H199.659ZM221.295 43.8379V44.8486C221.295 46.4697 221.075 47.9248 220.636 49.2139C220.196 50.5029 219.576 51.6016 218.775 52.5098C217.975 53.4082 217.018 54.0967 215.904 54.5752C214.801 55.0537 213.575 55.293 212.228 55.293C210.89 55.293 209.664 55.0537 208.551 54.5752C207.447 54.0967 206.49 53.4082 205.68 52.5098C204.869 51.6016 204.239 50.5029 203.79 49.2139C203.351 47.9248 203.131 46.4697 203.131 44.8486V43.8379C203.131 42.207 203.351 40.752 203.79 39.4727C204.229 38.1836 204.85 37.085 205.65 36.1768C206.461 35.2686 207.418 34.5752 208.521 34.0967C209.635 33.6182 210.86 33.3789 212.198 33.3789C213.546 33.3789 214.771 33.6182 215.875 34.0967C216.988 34.5752 217.945 35.2686 218.746 36.1768C219.557 37.085 220.182 38.1836 220.621 39.4727C221.07 40.752 221.295 42.207 221.295 43.8379ZM216.856 44.8486V43.8086C216.856 42.6758 216.754 41.6797 216.549 40.8203C216.344 39.9609 216.041 39.2383 215.641 38.6523C215.24 38.0664 214.752 37.627 214.176 37.334C213.6 37.0312 212.94 36.8799 212.198 36.8799C211.456 36.8799 210.797 37.0312 210.221 37.334C209.654 37.627 209.171 38.0664 208.771 38.6523C208.38 39.2383 208.082 39.9609 207.877 40.8203C207.672 41.6797 207.569 42.6758 207.569 43.8086V44.8486C207.569 45.9717 207.672 46.9678 207.877 47.8369C208.082 48.6963 208.385 49.4238 208.785 50.0195C209.186 50.6055 209.674 51.0498 210.25 51.3525C210.826 51.6553 211.485 51.8066 212.228 51.8066C212.97 51.8066 213.629 51.6553 214.205 51.3525C214.781 51.0498 215.265 50.6055 215.655 50.0195C216.046 49.4238 216.344 48.6963 216.549 47.8369C216.754 46.9678 216.856 45.9717 216.856 44.8486Z" fill="url(#paint0_linear_122_239)"/>
<defs>
<linearGradient id="paint0_linear_122_239" x1="131.5" y1="26" x2="131.5" y2="64" gradientUnits="userSpaceOnUse">
<stop stop-color="white"/>
<stop offset="1" stop-color="#D9D9D9" stop-opacity="0.8"/>
</linearGradient>
</defs>
</svg>
